<?xml version="1.0" encoding="UTF-8"?>
<svg width="12px" height="12px" viewBox="0 0 12 12" version="1.1" xmlns="http://www.w3.org/2000/svg" xmlns:xlink="http://www.w3.org/1999/xlink">
    <!-- Generator: Sketch 48.2 (47327) - http://www.bohemiancoding.com/sketch -->
    <title>Group 2 Copy 27</title>
    <desc>Created with Sketch.</desc>
    <defs></defs>
    <g id="AR-0-0-初始页面" stroke="none" stroke-width="1" fill="none" fill-rule="evenodd" transform="translate(-1451.000000, -770.000000)">
        <g id="Group-39-Copy-3" transform="translate(1402.000000, 770.000000)" fill="#FFFFFF" fill-rule="nonzero">
            <g id="Group-2-Copy-27" transform="translate(55.000000, 6.000000) rotate(-90.000000) translate(-55.000000, -6.000000) translate(49.000000, -0.000000)">
                <polygon id="Combined-Shape" opacity="0.5" points="6.27224944 5.30538124 6.27303393 5.30463069 6.99812481 5.99835242 6.99734033 5.99910297 7 6.00164758 6.27490912 6.69536931 6.27224944 6.6928247 0.725090882 12 0 11.3062783 5.54715856 5.99910297 0.00187518912 0.693721728 0.726966071 0"></polygon>
                <polygon id="Combined-Shape-Copy-4" points="11.2722494 5.30538124 11.2730339 5.30463069 11.9981248 5.99835242 11.9973403 5.99910297 12 6.00164758 11.2749091 6.69536931 11.2722494 6.6928247 5.72509088 12 5 11.3062783 10.5471586 5.99910297 5.00187519 0.693721728 5.72696607 0"></polygon>
            </g>
        </g>
    </g>
</svg>