<?xml version="1.0" encoding="UTF-8"?>
<svg width="1554px" height="91px" viewBox="0 0 1554 91" version="1.1" xmlns="http://www.w3.org/2000/svg" xmlns:xlink="http://www.w3.org/1999/xlink">
    <!-- Generator: Sketch 48.2 (47327) - http://www.bohemiancoding.com/sketch -->
    <title>Group 9</title>
    <desc>Created with Sketch.</desc>
    <defs>
        <radialGradient cx="51.3334587%" cy="100%" fx="51.3334587%" fy="100%" r="165.904035%" gradientTransform="translate(0.513335,1.000000),scale(0.046875,1.000000),rotate(-169.275815),translate(-0.513335,-1.000000)" id="radialGradient-1">
            <stop stop-color="#0A8AF9" stop-opacity="0.68138587" offset="0%"></stop>
            <stop stop-color="#0A4DAA" stop-opacity="0.560858243" offset="30.9115794%"></stop>
            <stop stop-color="#0A4094" stop-opacity="0" offset="100%"></stop>
        </radialGradient>
        <linearGradient x1="48.2827157%" y1="100%" x2="48.2827157%" y2="59.1909975%" id="linearGradient-2">
            <stop stop-color="#16B6FF" stop-opacity="0.259114583" offset="0%"></stop>
            <stop stop-color="#16B6FF" stop-opacity="0" offset="100%"></stop>
        </linearGradient>
        <text id="text-3" font-family="HiraMaruProN-W4, Hiragino Maru Gothic ProN" font-size="24" font-weight="normal" fill="#FFFFFF">
            <tspan x="830" y="51">KEDACOM警用AR系</tspan>
            <tspan x="1066.424" y="51" font-family="PingFangSC-Regular, PingFang SC">统</tspan>
        </text>
        <filter x="-6.1%" y="-42.4%" width="112.3%" height="197.0%" filterUnits="objectBoundingBox" id="filter-4">
            <feOffset dx="0" dy="2" in="SourceAlpha" result="shadowOffsetOuter1"></feOffset>
            <feGaussianBlur stdDeviation="5" in="shadowOffsetOuter1" result="shadowBlurOuter1"></feGaussianBlur>
            <feColorMatrix values="0 0 0 0 0.108189808   0 0 0 0 0.233265888   0 0 0 0 0.661910077  0 0 0 1 0" type="matrix" in="shadowBlurOuter1"></feColorMatrix>
        </filter>
        <radialGradient cx="50%" cy="93.688941%" fx="50%" fy="93.688941%" r="165.904035%" gradientTransform="translate(0.500000,0.936889),scale(0.023958,1.000000),rotate(-174.471057),translate(-0.500000,-0.936889)" id="radialGradient-5">
            <stop stop-color="#0A8AF9" stop-opacity="0.74" offset="0%"></stop>
            <stop stop-color="#0A4DAA" stop-opacity="0.670148324" offset="30.9115794%"></stop>
            <stop stop-color="#0A4094" stop-opacity="0" offset="100%"></stop>
        </radialGradient>
        <linearGradient x1="100%" y1="100%" x2="0%" y2="104.834473%" id="linearGradient-6">
            <stop stop-color="#13ACFD" stop-opacity="0" offset="0%"></stop>
            <stop stop-color="#16B6FF" stop-opacity="0.581380208" offset="52.347736%"></stop>
            <stop stop-color="#13ACFD" stop-opacity="0" offset="100%"></stop>
        </linearGradient>
        <path d="M1920,45 L1316.99267,45 C1299.31392,45 1281.95114,49.6866763 1266.6736,58.5824618 L1234.3264,77.4175382 C1219.04886,86.3133237 1201.68608,91 1184.00733,91 L735.992671,91 C718.313916,91 700.951143,86.3133237 685.673598,77.4175382 L653.326402,58.5824618 C638.048857,49.6866763 620.686084,45 603.007329,45 L0,45" id="path-7"></path>
    </defs>
    <g id="AR-0-0-初始页面" stroke="none" stroke-width="1" fill="none" fill-rule="evenodd" transform="translate(-209.000000, 0.000000)">
        <g id="Group-9">
            <path d="M1266.6736,57.5824618 L1234.3264,76.4175382 C1219.04886,85.3133237 1201.68608,90 1184.00733,90 L735.992671,90 C718.313916,90 700.951143,85.3133237 685.673598,76.4175382 L653.326402,57.5824618 C638.048857,48.6866763 620.686084,44 603.007329,44 L0,44 L0,0 L1920,0 L1920,44 L1316.99267,44 C1299.31392,44 1281.95114,48.6866763 1266.6736,57.5824618 Z" id="Combined-Shape" fill="url(#radialGradient-1)"></path>
            <path d="M1266.83711,58.5824618 L1234.48991,77.4175382 C1219.21237,86.3133237 1201.8496,91 1184.17084,91 L736.156183,91 C718.477428,91 701.114654,86.3133237 685.83711,77.4175382 L653.489913,58.5824618 C638.212369,49.6866763 620.849595,45 603.17084,45 L395,45 L395,1 L1574.79704,1 L1574.79704,45 L1317.15618,45 C1299.47743,45 1282.11465,49.6866763 1266.83711,58.5824618 Z" id="Combined-Shape-Copy-16" fill="url(#linearGradient-2)"></path>
            <g id="KEDACOM警用AR系统" fill="#FFFFFF" fill-opacity="1">
                <use filter="url(#filter-4)" xlink:href="#text-3"></use>
                <use xlink:href="#text-3"></use>
            </g>
            <path d="M1300,48 C1298.89543,48 1298,47.1045695 1298,46 C1298,44.8954305 1298.89543,44 1300,44 C1301.10457,44 1302,44.8954305 1302,46 C1302,47.1045695 1301.10457,48 1300,48 Z M621,48 C619.895431,48 619,47.1045695 619,46 C619,44.8954305 619.895431,44 621,44 C622.104569,44 623,44.8954305 623,46 C623,47.1045695 622.104569,48 621,48 Z M1203,91 C1201.89543,91 1201,90.1045695 1201,89 C1201,87.8954305 1201.89543,87 1203,87 C1204.10457,87 1205,87.8954305 1205,89 C1205,90.1045695 1204.10457,91 1203,91 Z M718,91 C716.895431,91 716,90.1045695 716,89 C716,87.8954305 716.895431,87 718,87 C719.104569,87 720,87.8954305 720,89 C720,90.1045695 719.104569,91 718,91 Z" id="Combined-Shape" fill="#16E3FF"></path>
            <g id="Combined-Shape">
                <use fill-opacity="0" fill="url(#radialGradient-5)" fill-rule="evenodd" xlink:href="#path-7"></use>
                <path stroke="url(#linearGradient-6)" stroke-width="1" d="M1302.85029,45.5 L617.149714,45.5 C629.951319,47.3195832 642.327273,51.5993196 653.577997,58.1503741 L685.925194,76.9854505 C701.126351,85.8367571 718.40231,90.5 735.992671,90.5 L1184.00733,90.5 C1201.59769,90.5 1218.87365,85.8367571 1234.07481,76.9854505 L1266.422,58.1503741 C1277.67273,51.5993196 1290.04868,47.3195832 1302.85029,45.5 Z"></path>
            </g>
            <g id="Group" transform="translate(1151.000000, 39.000000)" fill="#FFFFFF" fill-rule="nonzero">
                <polygon id="Combined-Shape" points="7.31762435 6.18961145 7.31853958 6.18873581 8.16447895 6.99807783 8.16356371 6.99895346 8.16666667 7.00192217 7.3207273 7.81126419 7.31762435 7.80829548 0.845939363 14 0 13.190658 6.47168499 6.99895346 0.00218772064 0.809342016 0.848127083 0"></polygon>
                <polygon id="Combined-Shape-Copy-4" points="13.1509577 6.18961145 13.1518729 6.18873581 13.9978123 6.99807783 13.996897 6.99895346 14 7.00192217 13.1540606 7.81126419 13.1509577 7.80829548 6.6792727 14 5.83333333 13.190658 12.3050183 6.99895346 5.83552105 0.809342016 6.68146042 0"></polygon>
            </g>
            <g id="Group-Copy-3" transform="translate(762.000000, 46.000000) scale(-1, 1) translate(-762.000000, -46.000000) translate(755.000000, 39.000000)" fill="#FFFFFF" fill-rule="nonzero">
                <polygon id="Combined-Shape" points="7.31762435 6.18961145 7.31853958 6.18873581 8.16447895 6.99807783 8.16356371 6.99895346 8.16666667 7.00192217 7.3207273 7.81126419 7.31762435 7.80829548 0.845939363 14 0 13.190658 6.47168499 6.99895346 0.00218772064 0.809342016 0.848127083 0"></polygon>
                <polygon id="Combined-Shape-Copy-4" points="13.1509577 6.18961145 13.1518729 6.18873581 13.9978123 6.99807783 13.996897 6.99895346 14 7.00192217 13.1540606 7.81126419 13.1509577 7.80829548 6.6792727 14 5.83333333 13.190658 12.3050183 6.99895346 5.83552105 0.809342016 6.68146042 0"></polygon>
            </g>
        </g>
    </g>
</svg>