<?xml version="1.0" encoding="UTF-8"?>
<svg width="68px" height="68px" viewBox="0 0 68 68" version="1.1" xmlns="http://www.w3.org/2000/svg" xmlns:xlink="http://www.w3.org/1999/xlink">
    <!-- Generator: Sketch 50.2 (55047) - http://www.bohemiancoding.com/sketch -->
    <title>Group 7 Copy</title>
    <desc>Created with Sketch.</desc>
    <defs>
        <linearGradient x1="100%" y1="50%" x2="0%" y2="50%" id="linearGradient-1">
            <stop stop-color="#FAD961" stop-opacity="0.3" offset="0%"></stop>
            <stop stop-color="#FFE298" stop-opacity="0.398777174" offset="100%"></stop>
        </linearGradient>
        <linearGradient x1="95.6605757%" y1="0%" x2="0%" y2="100%" id="linearGradient-2">
            <stop stop-color="#FFDB59" stop-opacity="0" offset="0%"></stop>
            <stop stop-color="#FFD44A" stop-opacity="0.686845195" offset="68.6845195%"></stop>
            <stop stop-color="#FFEAAB" offset="100%"></stop>
        </linearGradient>
        <linearGradient x1="3.08333844%" y1="100%" x2="100%" y2="3.860117%" id="linearGradient-3">
            <stop stop-color="#FFDB59" stop-opacity="0" offset="0%"></stop>
            <stop stop-color="#FFD44A" stop-opacity="0.686845195" offset="68.6845195%"></stop>
            <stop stop-color="#FFEAAB" offset="100%"></stop>
        </linearGradient>
    </defs>
    <g id="Symbols" stroke="none" stroke-width="1" fill="none" fill-rule="evenodd">
        <g id="抢机" transform="translate(-4.000000, -10.000000)">
            <g id="Group-2" transform="translate(4.000000, 10.000000)">
                <g id="Group-7-Copy">
                    <circle id="Oval-4" fill="url(#linearGradient-1)" cx="34" cy="34" r="32.2105263"></circle>
                    <g id="Group" fill-rule="nonzero">
                        <path d="M34,67.5526316 C33.2587757,67.5526316 32.6578947,66.9517506 32.6578947,66.2105263 C32.6578947,65.469302 33.2587757,64.8684211 34,64.8684211 C51.0481582,64.8684211 64.8684211,51.0481582 64.8684211,34 C64.8684211,33.2587757 65.469302,32.6578947 66.2105263,32.6578947 C66.9517506,32.6578947 67.5526316,33.2587757 67.5526316,34 C67.5526316,52.5306067 52.5306067,67.5526316 34,67.5526316 Z" id="Oval-4" fill="url(#linearGradient-2)"></path>
                        <path d="M34,0.447368421 C34.7412243,0.447368421 35.3421053,1.04824941 35.3421053,1.78947368 C35.3421053,2.53069795 34.7412243,3.13157895 34,3.13157895 C16.9518418,3.13157895 3.13157895,16.9518418 3.13157895,34 C3.13157895,34.7412243 2.53069795,35.3421053 1.78947368,35.3421053 C1.04824941,35.3421053 0.447368421,34.7412243 0.447368421,34 C0.447368421,15.4693933 15.4693933,0.447368421 34,0.447368421 Z" id="Oval-4" fill="url(#linearGradient-3)"></path>
                    </g>
                </g>
            </g>
        </g>
    </g>
</svg>