<?xml version="1.0" encoding="UTF-8"?>
<svg width="202px" height="188px" viewBox="0 0 202 188" version="1.1" xmlns="http://www.w3.org/2000/svg" xmlns:xlink="http://www.w3.org/1999/xlink">
    <!-- Generator: Sketch 48.2 (47327) - http://www.bohemiancoding.com/sketch -->
    <title>Group 41</title>
    <desc>Created with Sketch.</desc>
    <defs>
        <linearGradient x1="50%" y1="0%" x2="50%" y2="97.397162%" id="linearGradient-1">
            <stop stop-color="#16B6FF" offset="0%"></stop>
            <stop stop-color="#0B56BC" stop-opacity="0.57141644" offset="100%"></stop>
        </linearGradient>
        <linearGradient x1="0%" y1="11.5110192%" x2="116.366493%" y2="75.1316716%" id="linearGradient-2">
            <stop stop-color="#0F91EF" offset="0%"></stop>
            <stop stop-color="#155DB5" stop-opacity="0.598335598" offset="100%"></stop>
        </linearGradient>
        <linearGradient x1="50%" y1="0%" x2="50%" y2="100%" id="linearGradient-3">
            <stop stop-color="#8A233D" stop-opacity="0.745952219" offset="0%"></stop>
            <stop stop-color="#BD0E1B" stop-opacity="0.896059783" offset="100%"></stop>
        </linearGradient>
        <radialGradient cx="113.008989%" cy="100%" fx="113.008989%" fy="100%" r="183.999361%" id="radialGradient-4">
            <stop stop-color="#0A8AF9" stop-opacity="0.801658741" offset="0%"></stop>
            <stop stop-color="#0A4DAA" stop-opacity="0.697124094" offset="44.7248257%"></stop>
            <stop stop-color="#0A4094" stop-opacity="0.346722147" offset="100%"></stop>
        </radialGradient>
        <circle id="path-5" cx="102" cy="100" r="69"></circle>
    </defs>
    <g id="Page-2" stroke="none" stroke-width="1" fill="none" fill-rule="evenodd">
        <g id="Group-41">
            <g id="Group-33-Copy" transform="translate(1.000000, 0.000000)" fill-rule="nonzero">
                <path d="M51.8496989,13 L61.4923141,30.5219854 C36.1027434,44.4942526 20,71.1586507 20,100.66356 C20,128.842003 34.6774365,154.477438 58.2713625,168.933447 L47.822635,185.987013 C18.3547637,167.932034 0,135.873824 0,100.66356 C0,63.7931324 20.1337995,30.4537421 51.8496989,13 Z" id="Oval-24" fill="url(#linearGradient-1)"></path>
                <path d="M192.240301,62.1351033 L173.789529,69.8531999 C161.438399,40.3267629 132.508079,20.7000122 99.9503499,20.7000122 C86.2854506,20.7000122 73.1389818,24.121776 61.4426641,30.5584377 L51.8000488,13.0364523 C66.4319242,4.98430862 82.8922563,0.700012207 99.9503499,0.700012207 C140.64216,0.700012207 176.803667,25.2325058 192.240301,62.1351033 Z" id="Oval-24-Copy" fill="url(#linearGradient-2)"></path>
                <path d="M149.654564,187.45295 L139.699951,170.106317 C164.398932,155.932454 179.946532,129.660313 179.946532,100.664884 C179.946532,89.9251219 177.834695,79.4975155 173.785711,69.8180721 L192.236483,62.0999756 C197.303596,74.2133435 199.946532,87.2633552 199.946532,100.664884 C199.946532,136.897638 180.505637,169.748621 149.654564,187.45295 Z" id="Oval-24-Copy-2" fill="url(#linearGradient-3)"></path>
            </g>
            <g id="Oval-12-Copy-4">
                <use fill="url(#radialGradient-4)" fill-rule="evenodd" xlink:href="#path-5"></use>
                <circle stroke-opacity="0.683820199" stroke="#1191ED" stroke-width="1" cx="102" cy="100" r="68.5"></circle>
            </g>
            <g id="Group-2-Copy-26" opacity="0" transform="translate(151.000000, 100.000000) scale(1, -1) translate(-151.000000, -100.000000) translate(145.000000, 94.000000)" fill="#FFFFFF" fill-rule="nonzero">
                <polygon id="Combined-Shape" opacity="0.5" points="6.27224944 5.30538124 6.27303393 5.30463069 6.99812481 5.99835242 6.99734033 5.99910297 7 6.00164758 6.27490912 6.69536931 6.27224944 6.6928247 0.725090882 12 0 11.3062783 5.54715856 5.99910297 0.00187518912 0.693721728 0.726966071 0"></polygon>
                <polygon id="Combined-Shape-Copy-4" points="11.2722494 5.30538124 11.2730339 5.30463069 11.9981248 5.99835242 11.9973403 5.99910297 12 6.00164758 11.2749091 6.69536931 11.2722494 6.6928247 5.72509088 12 5 11.3062783 10.5471586 5.99910297 5.00187519 0.693721728 5.72696607 0"></polygon>
            </g>
            <g id="Group-2-Copy-27" opacity="0" transform="translate(136.485281, 65.485281) scale(1, -1) rotate(45.000000) translate(-136.485281, -65.485281) translate(130.485281, 59.485281)" fill="#FFFFFF" fill-rule="nonzero">
                <polygon id="Combined-Shape" opacity="0.5" points="6.27224944 5.30538124 6.27303393 5.30463069 6.99812481 5.99835242 6.99734033 5.99910297 7 6.00164758 6.27490912 6.69536931 6.27224944 6.6928247 0.725090882 12 0 11.3062783 5.54715856 5.99910297 0.00187518912 0.693721728 0.726966071 0"></polygon>
                <polygon id="Combined-Shape-Copy-4" points="11.2722494 5.30538124 11.2730339 5.30463069 11.9981248 5.99835242 11.9973403 5.99910297 12 6.00164758 11.2749091 6.69536931 11.2722494 6.6928247 5.72509088 12 5 11.3062783 10.5471586 5.99910297 5.00187519 0.693721728 5.72696607 0"></polygon>
            </g>
            <g id="Group-2-Copy-28" opacity="0" transform="translate(151.000000, 100.000000) scale(1, -1) translate(-151.000000, -100.000000) translate(145.000000, 94.000000)" fill="#FFFFFF" fill-rule="nonzero">
                <polygon id="Combined-Shape" opacity="0.5" points="6.27224944 5.30538124 6.27303393 5.30463069 6.99812481 5.99835242 6.99734033 5.99910297 7 6.00164758 6.27490912 6.69536931 6.27224944 6.6928247 0.725090882 12 0 11.3062783 5.54715856 5.99910297 0.00187518912 0.693721728 0.726966071 0"></polygon>
                <polygon id="Combined-Shape-Copy-4" points="11.2722494 5.30538124 11.2730339 5.30463069 11.9981248 5.99835242 11.9973403 5.99910297 12 6.00164758 11.2749091 6.69536931 11.2722494 6.6928247 5.72509088 12 5 11.3062783 10.5471586 5.99910297 5.00187519 0.693721728 5.72696607 0"></polygon>
            </g>
            <g id="Group-2-Copy-29" opacity="0" transform="translate(136.485281, 65.485281) scale(1, -1) rotate(45.000000) translate(-136.485281, -65.485281) translate(130.485281, 59.485281)" fill="#FFFFFF" fill-rule="nonzero">
                <polygon id="Combined-Shape" opacity="0.5" points="6.27224944 5.30538124 6.27303393 5.30463069 6.99812481 5.99835242 6.99734033 5.99910297 7 6.00164758 6.27490912 6.69536931 6.27224944 6.6928247 0.725090882 12 0 11.3062783 5.54715856 5.99910297 0.00187518912 0.693721728 0.726966071 0"></polygon>
                <polygon id="Combined-Shape-Copy-4" points="11.2722494 5.30538124 11.2730339 5.30463069 11.9981248 5.99835242 11.9973403 5.99910297 12 6.00164758 11.2749091 6.69536931 11.2722494 6.6928247 5.72509088 12 5 11.3062783 10.5471586 5.99910297 5.00187519 0.693721728 5.72696607 0"></polygon>
            </g>
            <path d="M100.720421,2 C100.168136,2 99.720421,1.55228475 99.720421,1 C99.720421,0.44771525 100.168136,0 100.720421,0 C101.272706,0 101.720421,0.44771525 101.720421,1 C101.720421,1.55228475 101.272706,2 100.720421,2 Z M129.903567,6.39902418 C129.375414,6.23755174 129.078161,5.67850025 129.239634,5.15034772 C129.401106,4.62219518 129.960158,4.32494223 130.48831,4.48641467 C131.016463,4.6478871 131.313716,5.20693859 131.152243,5.73509113 C130.990771,6.26324366 130.431719,6.56049661 129.903567,6.39902418 Z M156.493234,19.2051601 C156.035369,18.8963264 155.914556,18.2747945 156.223389,17.8169297 C156.532223,17.3590649 157.153755,17.2382513 157.61162,17.547085 C158.069485,17.8559187 158.190298,18.4774507 157.881464,18.9353155 C157.572631,19.3931803 156.951099,19.5139939 156.493234,19.2051601 Z M178.126423,39.2803402 C177.778859,38.8511343 177.845043,38.2214379 178.274249,37.8738739 C178.703455,37.5263098 179.333151,37.5924936 179.680715,38.0216994 C180.028279,38.4509053 179.962095,39.0806017 179.53289,39.4281658 C179.103684,39.7757298 178.473987,39.7095461 178.126423,39.2803402 Z M192.874215,64.8242655 C192.676294,64.3086633 192.933826,63.7302383 193.449428,63.5323171 C193.96503,63.334396 194.543455,63.5919274 194.741376,64.1075296 C194.939297,64.6231318 194.681766,65.2015568 194.166164,65.399478 C193.650562,65.5973991 193.072137,65.3398677 192.874215,64.8242655 Z M199.443237,93.5967471 C199.404711,93.0458077 199.820105,92.567952 200.371044,92.5294266 C200.921984,92.4909012 201.399839,92.9062948 201.438365,93.4572342 C201.47689,94.0081736 201.061497,94.4860293 200.510557,94.5245547 C199.959618,94.5630801 199.481762,94.1476865 199.443237,93.5967471 Z M197.238842,123.027142 C197.363079,122.489013 197.900034,122.153486 198.438163,122.277723 C198.976293,122.40196 199.311819,122.938915 199.187582,123.477044 C199.063345,124.015174 198.526391,124.3507 197.988261,124.226463 C197.450131,124.102226 197.114605,123.565272 197.238842,123.027142 Z M186.456936,150.5 C186.733078,150.021707 187.344669,149.857832 187.822961,150.133975 C188.301254,150.410117 188.465129,151.021707 188.188987,151.5 C187.912844,151.978293 187.301254,152.142168 186.822961,151.866025 C186.344669,151.589883 186.180794,150.978293 186.456936,150.5 Z M168.055696,173.573833 C168.459612,173.197176 169.092391,173.219273 169.469048,173.623189 C169.845706,174.027104 169.823609,174.659884 169.419693,175.036541 C169.015778,175.413198 168.382998,175.391101 168.006341,174.987186 C167.629684,174.58327 167.651781,173.950491 168.055696,173.573833 Z M33.3851456,173.573833 C33.7890611,173.950491 33.8111582,174.58327 33.4345009,174.987186 C33.0578436,175.391101 32.4250643,175.413198 32.0211488,175.036541 C31.6172334,174.659884 31.5951362,174.027104 31.9717935,173.623189 C32.3484508,173.219273 32.9812301,173.197176 33.3851456,173.573833 Z M14.983906,150.5 C15.2600484,150.978293 15.0961732,151.589883 14.6178806,151.866025 C14.139588,152.142168 13.5279976,151.978293 13.2518552,151.5 C12.9757128,151.021707 13.139588,150.410117 13.6178806,150.133975 C14.0961732,149.857832 14.7077636,150.021707 14.983906,150.5 Z M4.20199983,123.027142 C4.32623687,123.565272 3.99071055,124.102226 3.45258082,124.226463 C2.91445109,124.3507 2.37749674,124.015174 2.2532597,123.477044 C2.12902266,122.938915 2.46454898,122.40196 3.00267871,122.277723 C3.54080844,122.153486 4.07776279,122.489013 4.20199983,123.027142 Z M1.99760532,93.5967471 C1.95907988,94.1476865 1.4812242,94.5630801 0.930284792,94.5245547 C0.37934538,94.4860293 -0.0360482212,94.0081736 0.00247721544,93.4572342 C0.0410026521,92.9062948 0.518858328,92.4909012 1.06979774,92.5294266 C1.62073715,92.567952 2.03613075,93.0458077 1.99760532,93.5967471 Z M8.56662655,64.8242655 C8.36870539,65.3398677 7.7902804,65.5973991 7.27467817,65.399478 C6.75907594,65.2015568 6.50154454,64.6231318 6.69946569,64.1075296 C6.89738685,63.5919274 7.47581184,63.334396 7.99141407,63.5323171 C8.5070163,63.7302383 8.7645477,64.3086633 8.56662655,64.8242655 Z M23.3144187,39.2803402 C22.9668546,39.7095461 22.3371582,39.7757298 21.9079523,39.4281658 C21.4787465,39.0806017 21.4125627,38.4509053 21.7601268,38.0216994 C22.1076908,37.5924936 22.7373873,37.5263098 23.1665931,37.8738739 C23.595799,38.2214379 23.6619828,38.8511343 23.3144187,39.2803402 Z M44.9476081,19.2051601 C44.4897433,19.5139939 43.8682113,19.3931803 43.5593776,18.9353155 C43.2505439,18.4774507 43.3713575,17.8559187 43.8292223,17.547085 C44.2870871,17.2382513 44.908619,17.3590649 45.2174528,17.8169297 C45.5262865,18.2747945 45.4054729,18.8963264 44.9476081,19.2051601 Z M71.5372752,6.39902418 C71.0091227,6.56049661 70.4500712,6.26324366 70.2885988,5.73509113 C70.1271264,5.20693859 70.4243793,4.6478871 70.9525318,4.48641467 C71.4806844,4.32494223 72.0397359,4.62219518 72.2012083,5.15034772 C72.3626807,5.67850025 72.0654278,6.23755174 71.5372752,6.39902418 Z" id="Combined-Shape-Copy-42" fill="#16E3FF"></path>
        </g>
    </g>
</svg>